<svg xmlns="http://www.w3.org/2000/svg" xmlns:xlink="http://www.w3.org/1999/xlink" width="890px" height="450px" viewBox="0 0 890 450" preserveAspectRatio="xMidYMid meet" ><rect id="svgEditorBackground" x="0" y="0" width="890" height="450" style="fill: none; stroke: none;"/><defs id="svgEditorDefs"><polygon id="svgEditorShapeDefs" style="fill:khaki;stroke:black;vector-effect:non-scaling-stroke;stroke-width:1px;"/></defs><path d="M72.024,-0.139h-20.647c-0.8340000000000032,6.59,-2.3290000000000006,12.055,-4.532000000000004,16.282c-2.0990000000000038,4.310000000000002,-5.067999999999998,7.952999999999999,-8.558,11.04c-3.622,3.0440000000000005,-9.225999999999999,5.380000000000003,-14.286000000000001,7.035000000000004v18.144h17.184999999999995v44.895c0,5.882000000000005,0.5910000000000011,10.373000000000005,1.8629999999999995,13.444999999999993c1.2370000000000019,3.0870000000000033,3.363999999999997,5.992999999999995,6.6030000000000015,8.716999999999999c3.1850000000000023,2.753,7.000999999999998,4.867000000000004,11.555,6.355000000000004c4.435000000000002,1.4599999999999937,7.924999999999997,2.182000000000002,13.793000000000006,2.182000000000002c5.1440000000000055,0,9.956000000000003,-0.4860000000000042,14.355000000000004,-1.5570000000000022c4.4140000000000015,-1.0010000000000048,9.210999999999999,-2.5160000000000053,14.716999999999999,-5.088999999999999v-19.256c-6.436999999999998,4.198999999999998,-10.317000000000007,5.033000000000001,-16.810000000000002,5.033000000000001c-3.5589999999999975,0,-6.890000000000001,-0.8349999999999937,-9.643,-2.5160000000000053c-2.2039999999999935,-1.2789999999999964,-4.135999999999996,-3.4620000000000033,-4.9069999999999965,-5.534000000000006c-0.7639999999999958,-2.1129999999999995,-0.6880000000000024,-6.436999999999998,-0.6880000000000024,-13.834000000000003v-29.337000000000003h32.048v-23.971h-32.048v-32.035Z" style="fill:white; stroke:black; vector-effect:non-scaling-stroke;stroke-width:1px;" id="e4_shape" transform="matrix(3.34905 0 0 3.34905 -63.3806 13.4688)"/><path d="M159.65795485449013,-1.7840932281734894h-20.646999999999935c-0.83400000000006,6.590000000000002,-2.3290000000000646,12.054999999999993,-4.532000000000096,16.281999999999996c-2.0989999999999895,4.309999999999995,-5.067999999999984,7.952999999999989,-8.557999999999993,11.039999999999985c-3.6220000000000425,3.044000000000011,-9.226000000000056,5.38000000000001,-14.286000000000115,7.035000000000011v18.14399999999999h17.185000000000116v44.89499999999999c0,5.882000000000005,0.5910000000000082,10.373000000000005,1.8629999999999995,13.444999999999993c1.2370000000000232,3.0870000000000033,3.363999999999976,5.992999999999995,6.603000000000009,8.716999999999985c3.1850000000000023,2.752999999999986,7.000999999999976,4.867000000000004,11.555000000000035,6.355000000000004c4.434999999999974,1.4599999999999795,7.924999999999983,2.1820000000000306,13.792999999999978,2.1820000000000306c5.1440000000000055,0,9.956000000000017,-0.4860000000000184,14.355000000000018,-1.5570000000000306c4.413999999999987,-1.0010000000000048,9.210999999999956,-2.5160000000000338,14.716999999999985,-5.089000000000013v-19.255999999999972c-6.437000000000012,4.198999999999984,-10.317000000000007,5.033000000000001,-16.810000000000002,5.033000000000001c-3.559000000000026,0,-6.889999999999986,-0.8349999999999937,-9.643000000000029,-2.5160000000000053c-2.203999999999951,-1.2789999999999964,-4.135999999999967,-3.4620000000000033,-4.906999999999982,-5.534000000000006c-0.76400000000001,-2.1129999999999995,-0.6879999999999882,-6.436999999999998,-0.6879999999999882,-13.834000000000003v-29.336999999999982h32.048v-23.971000000000004h-32.048v-32.035Z" style="fill:white; stroke:black; vector-effect:non-scaling-stroke;stroke-width:1px;" id="e47_shape" transform="matrix(3.34905 0 0 3.34905 -63.3806 13.4688)"/><path d="M243.70880410031154,-2.5334100541797846h-20.646999999999963c-0.83400000000006,6.590000000000003,-2.3290000000000646,12.05499999999999,-4.532000000000096,16.281999999999996c-2.0989999999999895,4.309999999999997,-5.067999999999984,7.9529999999999905,-8.557999999999993,11.039999999999987c-3.622000000000071,3.044000000000011,-9.226000000000056,5.38000000000001,-14.286000000000115,7.035000000000011v18.14399999999999h17.185000000000116v44.89499999999993c0,5.882000000000005,0.5910000000000082,10.373000000000005,1.8629999999999995,13.444999999999993c1.2370000000000232,3.0870000000000033,3.363999999999976,5.992999999999995,6.603000000000009,8.716999999999985c3.1850000000000023,2.7530000000000143,7.000999999999976,4.867000000000019,11.555000000000035,6.355000000000018c4.435000000000031,1.4599999999999795,7.92500000000004,2.182000000000045,13.792999999999921,2.182000000000045c5.143999999999494,0,9.955999999999108,-0.4860000000000184,14.354999999999109,-1.5570000000000448c4.413999999999987,-1.0009999999999764,9.210999999999899,-2.5160000000000196,14.716999999999928,-5.089000000000013v-19.255999999999986c-6.437000000000012,4.198999999999984,-10.31699999999995,5.033000000000001,-16.809999999999945,5.033000000000001c-3.5589999999999407,0,-6.8899999999995885,-0.8349999999999937,-9.642999999999375,-2.5160000000000053c-2.203999999999752,-1.2789999999999964,-4.135999999999598,-3.4620000000000033,-4.90699999999967,-5.534000000000006c-0.7639999999999816,-2.1129999999999995,-0.6879999999999598,-6.436999999999998,-0.6879999999999598,-13.834000000000003v-29.336999999999925h32.04799999999895v-23.971000000000004h-32.04799999999895v-32.035Z" style="fill:white; stroke:black; vector-effect:non-scaling-stroke;stroke-width:1px;" id="e1_shape" transform="matrix(3.34905 0 0 3.34905 -63.3806 13.4688)"/></svg>