<svg xmlns="http://www.w3.org/2000/svg" xmlns:xlink="http://www.w3.org/1999/xlink" width="880px" height="500px" viewBox="0 -5.55111e-14 880 500" preserveAspectRatio="xMidYMid meet" ><rect id="svgEditorBackground" x="0" y="0" width="880" height="500" style="fill: none; stroke: none;"/><defs id="svgEditorDefs"><polygon id="svgEditorShapeDefs" style="fill:white;stroke:black;vector-effect:non-scaling-stroke;stroke-width:1px;"/></defs><path d="M72.024,-0.139h-20.647c-0.8340000000000032,6.59,-2.3290000000000006,12.055,-4.532000000000004,16.282c-2.0990000000000038,4.310000000000002,-5.067999999999998,7.952999999999999,-8.558,11.04c-3.622,3.0440000000000005,-9.225999999999999,5.380000000000003,-14.286000000000001,7.035000000000004v18.144h17.184999999999995v44.895c0,5.882000000000005,0.5910000000000011,10.373000000000005,1.8629999999999995,13.444999999999993c1.2370000000000019,3.0870000000000033,3.363999999999997,5.992999999999995,6.6030000000000015,8.716999999999999c3.1850000000000023,2.753,7.000999999999998,4.867000000000004,11.555,6.355000000000004c4.435000000000002,1.4599999999999937,7.924999999999997,2.182000000000002,13.793000000000006,2.182000000000002c5.1440000000000055,0,9.956000000000003,-0.4860000000000042,14.355000000000004,-1.5570000000000022c4.4140000000000015,-1.0010000000000048,9.210999999999999,-2.5160000000000053,14.716999999999999,-5.088999999999999v-19.256c-6.436999999999998,4.198999999999998,-10.317000000000007,5.033000000000001,-16.810000000000002,5.033000000000001c-3.5589999999999975,0,-6.890000000000001,-0.8349999999999937,-9.643,-2.5160000000000053c-2.2039999999999935,-1.2789999999999964,-4.135999999999996,-3.4620000000000033,-4.9069999999999965,-5.534000000000006c-0.7639999999999958,-2.1129999999999995,-0.6880000000000024,-6.436999999999998,-0.6880000000000024,-13.834000000000003v-29.337000000000003h32.048v-23.971h-32.048v-32.035Z" style="fill:white; stroke:black; vector-effect:non-scaling-stroke;stroke-width:1px;" id="e4_shape" transform="matrix(3.71596 0 0 3.71596 -2488.19 18.5202)"/><path d="M153.6071166519714,-0.9033784439055272h-20.64699999999999c-0.8340000000000032,6.590000000000002,-2.3290000000000077,12.05500000000001,-4.532000000000011,16.281999999999996c-2.0990000000000038,4.310000000000002,-5.067999999999998,7.95300000000001,-8.557999999999993,11.040000000000013c-3.622000000000014,3.0439999999999934,-9.225999999999999,5.379999999999999,-14.286000000000001,7.034999999999979v18.143999999999977h17.184999999999988v44.89500000000004c0,5.882000000000005,0.590999999999994,10.373000000000005,1.8629999999999995,13.444999999999993c1.237000000000009,3.0870000000000033,3.36399999999999,5.992999999999995,6.602999999999994,8.716999999999999c3.1850000000000023,2.7530000000000285,7.001000000000005,4.867000000000033,11.555000000000007,6.355000000000032c4.435000000000002,1.4599999999999795,7.925000000000011,2.1820000000000164,13.793000000000006,2.1820000000000164c5.1440000000000055,0,9.956000000000017,-0.4860000000000184,14.355000000000018,-1.5570000000000164c4.413999999999987,-1.0010000000000048,9.210999999999984,-2.5160000000000196,14.716999999999985,-5.088999999999999v-19.25600000000003c-6.437000000000012,4.198999999999998,-10.317000000000007,5.033000000000001,-16.810000000000002,5.033000000000001c-3.5589999999999975,0,-6.889999999999986,-0.8349999999999937,-9.643,-2.5160000000000053c-2.2039999999999793,-1.2789999999999964,-4.135999999999996,-3.4620000000000033,-4.907000000000011,-5.534000000000006c-0.7639999999999816,-2.1129999999999995,-0.6879999999999882,-6.436999999999998,-0.6879999999999882,-13.834000000000003v-29.33700000000006h32.048v-23.970999999999965h-32.048v-32.035Z" style="fill:white; stroke:black; vector-effect:non-scaling-stroke;stroke-width:1px;" id="e47_shape" transform="matrix(3.71596 0 0 3.71596 -2488.19 18.5202)"/><path d="M-9.16115737271275,-0.05310012122521435h-20.64699999999999c-0.8340000000000032,6.590000000000001,-2.3290000000000077,12.054999999999996,-4.532000000000011,16.281999999999982c-2.099000000000025,4.310000000000009,-5.068000000000012,7.953000000000017,-8.557999999999993,11.040000000000013c-3.622000000000014,3.0440000000000254,-9.225999999999999,5.380000000000074,-14.286000000000001,7.0350000000000605v18.144h17.184999999999974v44.894999999999875c0,5.882000000000005,0.5910000000000082,10.373000000000005,1.8629999999999995,13.444999999999993c1.2370000000000232,3.0870000000000033,3.363999999999997,5.992999999999995,6.603000000000009,8.717000000000013c3.1850000000000023,2.7530000000000285,7.001000000000005,4.867000000000019,11.555000000000007,6.355000000000061c4.435000000000002,1.460000000000079,7.925000000000011,2.182000000000201,13.793000000000006,2.182000000000201c5.1440000000000055,0,9.956000000000017,-0.48600000000004684,14.355000000000018,-1.5570000000001443c4.414000000000044,-1.0010000000000332,9.211000000000013,-2.516000000000105,14.716999999999985,-5.089000000000112v-19.256000000000014c-6.437000000000012,4.198999999999998,-10.317000000000007,5.033000000000001,-16.810000000000002,5.033000000000001c-3.559000000000002,0,-6.889999999999988,-0.8349999999999937,-9.642999999999997,-2.5160000000000053c-2.203999999999983,-1.2789999999999964,-4.135999999999999,-3.4620000000000033,-4.907000000000014,-5.534000000000006c-0.7639999999999816,-2.1129999999999995,-0.6879999999999882,-6.436999999999998,-0.6879999999999882,-13.834000000000003v-29.33699999999996h32.048v-23.97099999999997h-32.048v-32.035Z" style="fill:white; stroke:black; vector-effect:non-scaling-stroke;stroke-width:1px;" id="e1_shape" transform="matrix(3.71596 0 0 3.71596 -2488.19 18.5202)"/><path d="M-92.81124983469067,0.7971782014550948h-20.64699999999999c-0.8340000000000032,6.589999999999996,-2.3290000000000077,12.054999999999998,-4.532000000000011,16.28199999999999c-2.099000000000018,4.310000000000013,-5.068000000000012,7.953000000000028,-8.557999999999993,11.040000000000017c-3.622000000000014,3.0440000000000254,-9.225999999999999,5.380000000000059,-14.286000000000001,7.035000000000039v18.144000000000013h17.184999999999974v44.89499999999989c0,5.882000000000005,0.5910000000000082,10.373000000000005,1.8629999999999995,13.444999999999993c1.2370000000000232,3.0870000000000033,3.36399999999999,5.992999999999995,6.603000000000009,8.71699999999997c3.1850000000000023,2.7530000000000854,7.001000000000005,4.867000000000047,11.555000000000007,6.355000000000118c4.435000000000002,1.460000000000079,7.925000000000011,2.1820000000001443,13.793000000000006,2.1820000000001443c5.1440000000000055,0,9.956000000000017,-0.4860000000000184,14.355000000000018,-1.5570000000000874c4.414000000000044,-1.0010000000000332,9.211000000000013,-2.5160000000001475,14.716999999999992,-5.089000000000112v-19.25600000000003c-6.437000000000019,4.198999999999998,-10.317000000000014,5.033000000000001,-16.81000000000001,5.033000000000001c-3.5589999999999975,0,-6.889999999999986,-0.8349999999999937,-9.643,-2.5160000000000053c-2.2039999999999793,-1.2789999999999964,-4.135999999999996,-3.4620000000000033,-4.907000000000011,-5.534000000000006c-0.7639999999999816,-2.1129999999999995,-0.6879999999999882,-6.436999999999998,-0.6879999999999882,-13.834000000000003v-29.336999999999975h32.04800000000001v-23.970999999999982h-32.04800000000001v-32.035Z" style="fill:white; stroke:black; vector-effect:non-scaling-stroke;stroke-width:1px;" id="e2_shape" transform="matrix(3.71596 0 0 3.71596 -2488.19 18.5202)"/><path d="M-172.9629193023993,1.1092376019401278h-20.64699999999999c-0.8340000000000032,6.589999999999986,-2.3290000000000077,12.054999999999984,-4.532000000000011,16.281999999999968c-2.099000000000018,4.3100000000000165,-5.068000000000012,7.953000000000031,-8.557999999999993,11.040000000000042c-3.622000000000014,3.0440000000000538,-9.225999999999999,5.380000000000084,-14.286000000000001,7.035000000000071v18.144000000000013h17.184999999999974v44.89499999999982c0,5.882000000000005,0.5910000000000082,10.373000000000005,1.8629999999999995,13.444999999999993c1.2370000000000232,3.0870000000000033,3.363999999999976,5.992999999999995,6.603000000000009,8.716999999999913c3.1850000000000023,2.753000000000128,7.001000000000005,4.867000000000161,11.555000000000007,6.355000000000231c4.435000000000002,1.4600000000001643,7.925000000000011,2.1820000000002295,13.793000000000006,2.1820000000002295c5.1440000000000055,0,9.956000000000017,-0.4860000000000184,14.355000000000018,-1.5570000000001443c4.414000000000044,-1.00100000000009,9.211000000000013,-2.516000000000176,14.716999999999985,-5.08900000000024v-19.255999999999986c-6.437000000000012,4.198999999999998,-10.317000000000007,5.033000000000001,-16.810000000000002,5.033000000000001c-3.5589999999999975,0,-6.889999999999986,-0.8349999999999937,-9.643,-2.5160000000000053c-2.2039999999999793,-1.2789999999999964,-4.135999999999996,-3.4620000000000033,-4.907000000000011,-5.534000000000006c-0.7639999999999532,-2.1129999999999995,-0.6879999999999882,-6.436999999999998,-0.6879999999999882,-13.834000000000003v-29.336999999999883h32.048v-23.970999999999997h-32.048v-32.035Z" style="fill:white; stroke:black; vector-effect:non-scaling-stroke;stroke-width:1px;" id="e3_shape" transform="matrix(3.71596 0 0 3.71596 -2488.19 18.5202)"/><path d="M-224.58898589375826,-1.8080165307465004h-20.64699999999999c-0.8340000000000032,6.589999999999983,-2.3290000000000077,12.054999999999989,-4.532000000000011,16.281999999999968c-2.099000000000018,4.31000000000002,-5.068000000000012,7.953000000000035,-8.557999999999964,11.040000000000045c-3.622000000000071,3.0440000000000538,-9.225999999999999,5.380000000000081,-14.286000000000058,7.035000000000071v18.14399999999999h17.185000000000002v44.894999999999854c0,5.882000000000005,0.5910000000000082,10.373000000000005,1.8629999999999995,13.444999999999993c1.2370000000000232,3.0870000000000033,3.363999999999976,5.992999999999995,6.603000000000009,8.716999999999913c3.1850000000000023,2.753000000000128,7.001000000000005,4.867000000000161,11.555000000000007,6.355000000000231c4.435000000000002,1.46000000000015,7.925000000000011,2.1820000000002437,13.793000000000006,2.1820000000002437c5.1440000000000055,0,9.956000000000017,-0.48600000000004684,14.355000000000018,-1.55700000000013c4.414000000000044,-1.00100000000009,9.211000000000013,-2.5160000000002043,14.716999999999985,-5.089000000000283v-19.255999999999972c-6.437000000000012,4.198999999999998,-10.317000000000007,5.033000000000001,-16.810000000000002,5.033000000000001c-3.5589999999999975,0,-6.889999999999986,-0.8349999999999937,-9.643,-2.5160000000000053c-2.2039999999999793,-1.2789999999999964,-4.135999999999996,-3.4620000000000033,-4.907000000000011,-5.534000000000006c-0.7639999999999532,-2.1129999999999995,-0.6879999999999882,-6.436999999999998,-0.6879999999999882,-13.834000000000003v-29.33699999999994h32.048v-23.970999999999975h-32.048v-32.035Z" style="fill:white; stroke:black; vector-effect:non-scaling-stroke;stroke-width:1px;" id="e5_shape" transform="matrix(3.71596 0 0 3.71596 -2488.19 18.5202)"/><path d="M221.09923162331734,-3.110613896847296h-20.64699999999999c-0.8340000000000032,6.5899999999999785,-2.3290000000000077,12.054999999999993,-4.532000000000011,16.281999999999975c-2.099000000000018,4.310000000000018,-5.068000000000012,7.95300000000004,-8.557999999999964,11.040000000000058c-3.622000000000071,3.0440000000000538,-9.225999999999999,5.380000000000081,-14.286000000000058,7.035000000000046v18.143999999999924h17.185000000000002v44.895000000000024c0,5.882000000000019,0.5910000000000082,10.373000000000005,1.8629999999999995,13.444999999999993c1.2370000000000232,3.0870000000000033,3.363999999999976,5.992999999999995,6.603000000000009,8.716999999999913c3.1850000000000023,2.7530000000001422,7.001000000000005,4.867000000000175,11.555000000000007,6.355000000000231c4.435000000000002,1.46000000000015,7.925000000000011,2.1820000000002437,13.793000000000006,2.1820000000002437c5.1440000000000055,0,9.956000000000017,-0.48600000000004684,14.355000000000018,-1.55700000000013c4.414000000000044,-1.00100000000009,9.211000000000013,-2.51600000000019,14.716999999999985,-5.089000000000269v-19.255999999999986c-6.437000000000012,4.198999999999998,-10.317000000000007,5.033000000000001,-16.810000000000002,5.033000000000001c-3.5589999999999975,0,-6.889999999999986,-0.8349999999999937,-9.643,-2.5160000000000053c-2.2039999999999793,-1.2789999999999964,-4.135999999999996,-3.4620000000000033,-4.907000000000011,-5.534000000000006c-0.7639999999999532,-2.1129999999999995,-0.6879999999999882,-6.436999999999998,-0.6879999999999882,-13.834000000000003v-29.337000000000103h32.048v-23.970999999999886h-32.048v-32.035Z" style="fill:white; stroke:black; vector-effect:non-scaling-stroke;stroke-width:1px;" id="e6_shape" transform="matrix(3.71596 0 0 3.71596 -2488.19 18.5202)"/><path d="M305.91166180846096,-4.68232072404574h-20.64699999999999c-0.8340000000000032,6.589999999999982,-2.3290000000000077,12.054999999999989,-4.531999999999982,16.281999999999982c-2.0990000000000464,4.31000000000002,-5.0680000000000405,7.953000000000044,-8.557999999999993,11.040000000000054c-3.622000000000071,3.0440000000000538,-9.225999999999999,5.3800000000000665,-14.286000000000058,7.035000000000039v18.143999999999888h17.185000000000002v44.89500000000004c0,5.882000000000019,0.5910000000000082,10.373000000000005,1.8629999999999995,13.444999999999993c1.2370000000000232,3.0870000000000033,3.3640000000000327,5.992999999999995,6.603000000000009,8.716999999999913c3.1850000000000023,2.7530000000001422,7.001000000000033,4.867000000000189,11.555000000000007,6.355000000000246c4.435000000000002,1.46000000000015,7.925000000000011,2.1820000000002437,13.793000000000006,2.1820000000002437c5.1440000000000055,0,9.956000000000017,-0.48600000000004684,14.355000000000018,-1.55700000000013c4.414000000000044,-1.00100000000009,9.211000000000013,-2.51600000000019,14.716999999999985,-5.089000000000283v-19.255999999999986c-6.437000000000012,4.198999999999998,-10.317000000000007,5.033000000000001,-16.810000000000002,5.033000000000001c-3.559000000000026,0,-6.889999999999986,-0.8349999999999937,-9.642999999999972,-2.5160000000000053c-2.2040000000000077,-1.2789999999999964,-4.136000000000024,-3.461999999999989,-4.907000000000039,-5.534000000000006c-0.7639999999999532,-2.1129999999999995,-0.6879999999999882,-6.436999999999998,-0.6879999999999882,-13.834000000000003v-29.33700000000013h32.048v-23.970999999999876h-32.048v-32.035Z" style="fill:white; stroke:black; vector-effect:non-scaling-stroke;stroke-width:1px;" id="e7_shape" transform="matrix(3.71596 0 0 3.71596 -2488.19 18.5202)"/><path d="M390.45498253250673,-3.2938234791701557h-20.64699999999999c-0.8340000000000032,6.5899999999999785,-2.3290000000000077,12.054999999999987,-4.531999999999982,16.281999999999982c-2.0990000000000464,4.3100000000000165,-5.0680000000000405,7.9530000000000385,-8.557999999999993,11.040000000000049c-3.622000000000071,3.0440000000000538,-9.225999999999999,5.3800000000000665,-14.286000000000058,7.035000000000036v18.143999999999842h17.185000000000002v44.895000000000074c0,5.882000000000019,0.5910000000000082,10.373000000000005,1.8629999999999995,13.444999999999993c1.2370000000000232,3.0870000000000033,3.3640000000000327,5.992999999999995,6.603000000000009,8.716999999999913c3.1850000000000023,2.7530000000001422,7.001000000000033,4.867000000000189,11.555000000000007,6.355000000000246c4.435000000000002,1.4600000000001359,7.925000000000011,2.1820000000002295,13.793000000000006,2.1820000000002295c5.1440000000000055,0,9.956000000000017,-0.48600000000004684,14.355000000000018,-1.5570000000001158c4.414000000000044,-1.00100000000009,9.211000000000013,-2.51600000000019,14.716999999999985,-5.089000000000283v-19.255999999999986c-6.437000000000012,4.198999999999998,-10.317000000000007,5.0330000000000155,-16.810000000000002,5.0330000000000155c-3.559000000000026,0,-6.889999999999986,-0.835000000000008,-9.642999999999972,-2.5160000000000196c-2.2040000000000077,-1.2789999999999964,-4.136000000000024,-3.4619999999999607,-4.907000000000039,-5.534000000000006c-0.7639999999999532,-2.1129999999999995,-0.6879999999999882,-6.436999999999998,-0.6879999999999882,-13.834000000000003v-29.337000000000174h32.048v-23.970999999999833h-32.048v-32.035Z" style="fill:white; stroke:black; vector-effect:non-scaling-stroke;stroke-width:1px;" id="e8_shape" transform="matrix(3.71596 0 0 3.71596 -2488.19 18.5202)"/><path d="M473.65275595106414,-3.2508735397827664h-20.64699999999999c-0.8340000000000032,6.589999999999979,-2.3290000000000077,12.054999999999996,-4.531999999999982,16.28199999999999c-2.0990000000000464,4.3100000000000165,-5.0680000000000405,7.953000000000042,-8.557999999999993,11.040000000000074c-3.622000000000071,3.0440000000000467,-9.225999999999999,5.380000000000052,-14.286000000000058,7.035000000000025v18.143999999999796h17.185000000000002v44.895000000000195c0,5.882000000000019,0.5910000000000082,10.373000000000019,1.8629999999999995,13.444999999999993c1.2370000000000232,3.0870000000000033,3.3640000000000327,5.992999999999995,6.603000000000009,8.716999999999913c3.1850000000000023,2.7530000000001422,7.001000000000033,4.867000000000189,11.555000000000007,6.35500000000026c4.435000000000002,1.46000000000015,7.925000000000011,2.1820000000002437,13.793000000000006,2.1820000000002437c5.1440000000000055,0,9.956000000000017,-0.48600000000004684,14.355000000000018,-1.55700000000013c4.414000000000044,-1.00100000000009,9.211000000000013,-2.5160000000002043,14.716999999999985,-5.089000000000297v-19.255999999999986c-6.437000000000012,4.198999999999998,-10.317000000000007,5.033000000000001,-16.810000000000002,5.033000000000001c-3.559000000000026,0,-6.889999999999986,-0.8349999999999937,-9.642999999999972,-2.5160000000000053c-2.2040000000000646,-1.2789999999999964,-4.136000000000024,-3.461999999999989,-4.907000000000039,-5.534000000000006c-0.7639999999999532,-2.1129999999999995,-0.6879999999999882,-6.436999999999998,-0.6879999999999882,-13.834000000000003v-29.33700000000028h32.048v-23.97099999999982h-32.048v-32.035Z" style="fill:white; stroke:black; vector-effect:non-scaling-stroke;stroke-width:1px;" id="e9_shape" transform="matrix(3.71596 0 0 3.71596 -2488.19 18.5202)"/><path d="M556.5814199085238,-2.9388141392977376h-20.647000000000048c-0.8339999999999463,6.589999999999977,-2.328999999999951,12.054999999999989,-4.531999999999925,16.281999999999982c-2.0990000000000464,4.31000000000002,-5.067999999999984,7.953000000000049,-8.557999999999993,11.040000000000092c-3.622000000000071,3.0440000000000325,-9.225999999999999,5.380000000000045,-14.286000000000058,7.035000000000018v18.143999999999775h17.18500000000006v44.895000000000266c0,5.882000000000019,0.5910000000000082,10.373000000000019,1.8629999999999427,13.444999999999993c1.2369999999999663,3.0870000000000033,3.3640000000000327,5.992999999999995,6.6030000000000655,8.716999999999913c3.1849999999999454,2.7530000000001422,7.000999999999976,4.867000000000175,11.55499999999995,6.35500000000026c4.434999999999945,1.46000000000015,7.9249999999999545,2.1820000000002437,13.793000000000006,2.1820000000002437c5.1440000000000055,0,9.956000000000017,-0.48600000000004684,14.355000000000018,-1.55700000000013c4.413999999999987,-1.00100000000009,9.211000000000013,-2.5160000000002043,14.716999999999985,-5.089000000000297v-19.255999999999972c-6.437000000000012,4.198999999999998,-10.317000000000007,5.033000000000001,-16.81000000000006,5.033000000000001c-3.558999999999969,0,-6.889999999999873,-0.8349999999999937,-9.642999999999915,-2.5160000000000053c-2.2040000000000646,-1.2789999999999964,-4.135999999999967,-3.461999999999989,-4.907000000000039,-5.534000000000006c-0.76400000000001,-2.1129999999999995,-0.6879999999999882,-6.436999999999998,-0.6879999999999882,-13.834000000000003v-29.33700000000033h32.048v-23.970999999999822h-32.048v-32.035Z" style="fill:white; stroke:black; vector-effect:non-scaling-stroke;stroke-width:1px;" id="e10_shape" transform="matrix(3.71596 0 0 3.71596 -2488.19 18.5202)"/><path d="M641.9320690158627,-3.703192583203265h-20.647000000000048c-0.8339999999999463,6.58999999999998,-2.328999999999951,12.054999999999994,-4.531999999999925,16.281999999999982c-2.0990000000000464,4.31000000000002,-5.067999999999984,7.953000000000049,-8.557999999999993,11.04000000000011c-3.622000000000071,3.0440000000000254,-9.225999999999999,5.380000000000038,-14.286000000000058,7.035000000000011v18.143999999999743h17.18500000000006v44.895000000000344c0,5.882000000000019,0.5910000000000082,10.373000000000019,1.8629999999999427,13.445000000000007c1.2369999999999663,3.086999999999989,3.3640000000000327,5.992999999999981,6.6030000000000655,8.7169999999999c3.1849999999999454,2.753000000000128,7.000999999999976,4.867000000000161,11.55499999999995,6.355000000000246c4.434999999999945,1.46000000000015,7.9249999999999545,2.1820000000002437,13.793000000000006,2.1820000000002437c5.1440000000000055,0,9.956000000000017,-0.48600000000004684,14.355000000000018,-1.55700000000013c4.413999999999987,-1.00100000000009,9.211000000000013,-2.51600000000019,14.716999999999985,-5.089000000000269v-19.255999999999986c-6.437000000000012,4.198999999999998,-10.317000000000007,5.033000000000001,-16.81000000000006,5.033000000000001c-3.558999999999969,0,-6.889999999999873,-0.8349999999999937,-9.642999999999915,-2.5160000000000053c-2.2040000000000646,-1.2789999999999964,-4.135999999999967,-3.461999999999989,-4.907000000000039,-5.534000000000006c-0.76400000000001,-2.1129999999999995,-0.6879999999999882,-6.436999999999998,-0.6879999999999882,-13.834000000000003v-29.33700000000041h32.048v-23.970999999999812h-32.048v-32.035Z" style="fill:white; stroke:black; vector-effect:non-scaling-stroke;stroke-width:1px;" id="e11_shape" transform="matrix(3.71596 0 0 3.71596 -2488.19 18.5202)"/><path d="M726.7444992010063,-4.198461566011146h-20.647000000000048c-0.8339999999999463,6.589999999999976,-2.328999999999951,12.054999999999989,-4.531999999999925,16.281999999999982c-2.0990000000000464,4.3100000000000165,-5.067999999999984,7.953000000000053,-8.557999999999993,11.040000000000113c-3.622000000000071,3.0440000000000325,-9.225999999999999,5.380000000000038,-14.286000000000058,7.035000000000018v18.143999999999764h17.18500000000006v44.89500000000028c0,5.882000000000019,0.5910000000000082,10.373000000000019,1.8629999999999427,13.445000000000022c1.2369999999999663,3.086999999999975,3.3640000000000327,5.992999999999967,6.6030000000000655,8.71699999999987c3.1849999999999454,2.7530000000001706,7.000999999999976,4.867000000000132,11.55499999999995,6.355000000000231c4.434999999999945,1.4600000000001643,7.9249999999999545,2.182000000000258,13.793000000000006,2.182000000000258c5.1440000000000055,0,9.956000000000017,-0.48600000000004684,14.355000000000018,-1.55700000000013c4.413999999999987,-1.00100000000009,9.211000000000013,-2.516000000000176,14.716999999999985,-5.089000000000254v-19.255999999999958c-6.437000000000012,4.198999999999998,-10.317000000000007,5.033000000000001,-16.81000000000006,5.033000000000001c-3.558999999999969,0,-6.889999999999873,-0.8349999999999937,-9.642999999999915,-2.5160000000000053c-2.2040000000000646,-1.2789999999999964,-4.135999999999967,-3.461999999999989,-4.907000000000039,-5.534000000000006c-0.76400000000001,-2.1129999999999995,-0.6879999999999882,-6.436999999999998,-0.6879999999999882,-13.834000000000003v-29.337000000000344h32.048v-23.97099999999985h-32.048v-32.035Z" style="fill:white; stroke:black; vector-effect:non-scaling-stroke;stroke-width:1px;" id="e12_shape" transform="matrix(3.71596 0 0 3.71596 -2488.19 18.5202)"/><path d="M809.4040536973685,-3.348183243330844h-20.647000000000048c-0.8339999999999463,6.589999999999977,-2.328999999999837,12.054999999999986,-4.531999999999925,16.281999999999975c-2.0990000000000464,4.310000000000013,-5.067999999999984,7.953000000000056,-8.557999999999993,11.040000000000116c-3.622000000000071,3.044000000000043,-9.225999999999999,5.380000000000045,-14.286000000000058,7.035000000000025v18.14399999999974h17.18500000000006v44.89500000000035c0,5.882000000000019,0.5910000000000082,10.373000000000019,1.8629999999999427,13.445000000000022c1.2369999999999663,3.086999999999975,3.3640000000000327,5.992999999999967,6.6030000000000655,8.71699999999987c3.1849999999999454,2.7530000000001706,7.000999999999976,4.867000000000161,11.55499999999995,6.355000000000246c4.434999999999945,1.4600000000001643,7.9249999999999545,2.182000000000258,13.793000000000006,2.182000000000258c5.1440000000000055,0,9.956000000000017,-0.48600000000004684,14.355000000000018,-1.55700000000013c4.413999999999987,-1.0010000000000758,9.211000000000013,-2.516000000000176,14.716999999999985,-5.089000000000269v-19.255999999999958c-6.437000000000012,4.198999999999998,-10.317000000000007,5.033000000000001,-16.81000000000006,5.033000000000001c-3.558999999999969,0,-6.889999999999873,-0.8349999999999937,-9.642999999999915,-2.5160000000000053c-2.2040000000000646,-1.2789999999999964,-4.135999999999967,-3.461999999999989,-4.907000000000039,-5.534000000000006c-0.76400000000001,-2.1129999999999995,-0.6879999999999882,-6.436999999999998,-0.6879999999999882,-13.834000000000003v-29.3370000000004h32.048v-23.97099999999983h-32.048v-32.035Z" style="fill:white; stroke:black; vector-effect:non-scaling-stroke;stroke-width:1px;" id="e13_shape" transform="matrix(3.71596 0 0 3.71596 -2488.19 18.5202)"/><path d="M892.6018271159262,-3.305233303943453h-20.647000000000048c-0.8339999999999463,6.589999999999981,-2.328999999999837,12.054999999999993,-4.531999999999925,16.281999999999982c-2.0990000000000464,4.310000000000006,-5.067999999999984,7.953000000000049,-8.557999999999993,11.040000000000116c-3.622000000000071,3.044000000000043,-9.225999999999999,5.380000000000042,-14.286000000000058,7.035000000000018v18.14399999999976h17.18500000000006v44.89500000000031c0,5.882000000000019,0.5910000000000082,10.373000000000019,1.8630000000000564,13.445000000000022c1.2369999999998527,3.086999999999975,3.363999999999919,5.992999999999967,6.602999999999952,8.71699999999987c3.1849999999999454,2.7530000000001706,7.000999999999976,4.8670000000001465,11.55499999999995,6.355000000000231c4.434999999999945,1.4600000000001785,7.9249999999999545,2.182000000000272,13.793000000000006,2.182000000000272c5.1440000000000055,0,9.956000000000017,-0.48600000000004684,14.355000000000018,-1.55700000000013c4.413999999999987,-1.00100000000009,9.211000000000013,-2.51600000000019,14.716999999999985,-5.089000000000269v-19.255999999999958c-6.437000000000012,4.198999999999998,-10.317000000000007,5.033000000000001,-16.81000000000006,5.033000000000001c-3.558999999999969,0,-6.889999999999873,-0.8349999999999937,-9.642999999999915,-2.5160000000000053c-2.2040000000000646,-1.2789999999999964,-4.135999999999967,-3.461999999999989,-4.907000000000039,-5.534000000000006c-0.76400000000001,-2.1129999999999995,-0.6879999999999882,-6.436999999999998,-0.6879999999999882,-13.834000000000003v-29.33700000000036h32.048v-23.97099999999984h-32.048v-32.035Z" style="fill:white; stroke:black; vector-effect:non-scaling-stroke;stroke-width:1px;" id="e14_shape" transform="matrix(3.71596 0 0 3.71596 -2488.19 18.5202)"/><path d="M977.9524762232645,-4.607830670044252h-20.647000000000048c-0.8339999999999463,6.589999999999983,-2.328999999999837,12.054999999999993,-4.531999999999925,16.281999999999982c-2.0990000000000464,4.310000000000006,-5.067999999999984,7.953000000000056,-8.557999999999993,11.040000000000116c-3.622000000000071,3.0440000000000396,-9.225999999999999,5.380000000000038,-14.286000000000058,7.035000000000011v18.14399999999974h17.18500000000006v44.89500000000034c0,5.882000000000019,0.5910000000000082,10.373000000000019,1.8630000000000564,13.445000000000022c1.2369999999998527,3.086999999999975,3.363999999999919,5.992999999999967,6.602999999999952,8.71699999999987c3.1849999999999454,2.753000000000185,7.000999999999976,4.867000000000189,11.55499999999995,6.355000000000217c4.434999999999945,1.460000000000207,7.9249999999999545,2.1820000000003006,13.793000000000006,2.1820000000003006c5.1440000000000055,0,9.956000000000017,-0.48600000000004684,14.355000000000018,-1.55700000000013c4.413999999999987,-1.00100000000009,9.211000000000013,-2.51600000000019,14.716999999999985,-5.089000000000283v-19.255999999999958c-6.437000000000012,4.198999999999998,-10.317000000000007,5.033000000000001,-16.81000000000006,5.033000000000001c-3.558999999999969,0,-6.889999999999873,-0.8349999999999937,-9.642999999999915,-2.5160000000000053c-2.2040000000000646,-1.2789999999999964,-4.135999999999967,-3.461999999999989,-4.907000000000039,-5.534000000000006c-0.76400000000001,-2.1129999999999995,-0.6879999999999882,-6.436999999999998,-0.6879999999999882,-13.834000000000003v-29.337000000000387h32.048v-23.970999999999822h-32.048v-32.035Z" style="fill:white; stroke:black; vector-effect:non-scaling-stroke;stroke-width:1px;" id="e15_shape" transform="matrix(3.71596 0 0 3.71596 -2488.19 18.5202)"/><path d="M1062.4957969473126,-4.833990191754501h-20.64700000000039c-0.8339999999998327,6.589999999999985,-2.3289999999997235,12.054999999999996,-4.531999999999698,16.281999999999975c-2.09900000000016,4.310000000000006,-5.068000000000666,7.953000000000056,-8.558000000000902,11.040000000000116c-3.622000000001208,3.0440000000000396,-9.22600000000159,5.380000000000038,-14.28600000000165,7.035000000000011v18.14399999999974h17.185000000001992v44.89500000000038c0,5.882000000000019,0.5909999999998945,10.373000000000019,1.8630000000002838,13.445000000000022c1.2369999999996253,3.086999999999975,3.3640000000000327,5.992999999999967,6.6030000000000655,8.71699999999987c3.1849999999999454,2.753000000000185,7.001000000000204,4.867000000000203,11.555000000000291,6.355000000000231c4.434999999999945,1.460000000000207,7.924999999999727,2.1820000000002864,13.792999999999665,2.1820000000002864c5.144000000000233,0,9.956000000000131,-0.48600000000003263,14.355000000000018,-1.5570000000001158c4.414000000000215,-1.00100000000009,9.21100000000024,-2.51600000000019,14.717000000000098,-5.089000000000297v-19.255999999999958c-6.436999999999898,4.198999999999998,-10.317000000000007,5.033000000000001,-16.809999999999945,5.033000000000001c-3.5590000000001965,0,-6.889999999999873,-0.8349999999999937,-9.643000000000029,-2.5160000000000053c-2.2040000000001783,-1.2789999999999964,-4.135999999999967,-3.461999999999989,-4.907000000000153,-5.534000000000006c-0.7639999999996689,-2.1129999999999995,-0.6879999999996471,-6.436999999999998,-0.6879999999996471,-13.834000000000003v-29.337000000000423h32.047999999999774v-23.970999999999815h-32.047999999999774v-32.03500000000001Z" style="fill:white; stroke:black; vector-effect:non-scaling-stroke;stroke-width:1px;" id="e16_shape" transform="matrix(3.71596 0 0 3.71596 -2488.19 18.5202)"/></svg>